<svg width="208" height="69" viewBox="0 0 208 69" fill="none" xmlns="http://www.w3.org/2000/svg">
<path d="M2 32.0454C13.2949 26.2414 24.1816 19.7476 34.166 12.9069C38.3903 10.0126 42.9685 6.51486 47.7095 4.07864C50.664 2.56046 52.4545 0.581686 53.823 3.49869C55.3443 6.74149 56.8801 9.98049 58.3375 13.2613C59.4366 15.7357 61.6314 17.9496 63.4163 20.2207C65.0876 22.3473 66.6684 24.5506 67.9779 26.7936C68.56 27.7907 68.8134 29.5778 70.1411 30.3055C71.589 31.0991 72.2553 33.2966 72.6805 34.4619C74.3807 39.1214 72.1215 38.4002 77.5242 35.8473C89.0378 30.407 100.449 25.0428 111.853 19.5441C114.758 18.1438 117.401 16.2798 120.506 15.0978C123.929 13.7948 128.245 12.7598 131.04 10.8448C133.137 9.40801 134.684 7.62263 137.812 8.84717C141.554 10.3121 144.844 13.5161 148.581 15.3233C160.229 20.9566 171.666 27.3458 183.945 32.3031C189.403 34.507 195.023 36.6337 200.357 38.9726C202.292 39.8212 203.61 40.7447 206 40.7447" stroke="#929DFC" stroke-width="3" stroke-linecap="round"/>
<path d="M2 58.3008C13.2949 52.4968 24.1816 46.003 34.166 39.1622C38.3903 36.2679 42.9685 32.7702 47.7095 30.334C50.664 28.8158 52.4545 26.8371 53.823 29.7541C55.3443 32.9969 56.8801 36.2359 58.3375 39.5166C59.4366 41.991 61.6314 44.2049 63.4163 46.4761C65.0876 48.6027 66.6684 50.806 67.9779 53.0489C68.56 54.0461 68.8134 55.8332 70.1411 56.5609C71.589 57.3545 72.2553 59.552 72.6805 60.7172C74.3807 65.3767 72.1215 64.6555 77.5242 62.1027C89.0378 56.6624 100.449 51.2982 111.853 45.7995C114.758 44.3992 117.401 42.5352 120.506 41.3532C123.929 40.0502 128.245 39.0152 131.04 37.1002C133.137 35.6634 134.684 33.878 137.812 35.1025C141.554 36.5674 144.844 39.7715 148.581 41.5787C160.229 47.212 171.666 53.6012 183.945 58.5585C189.403 60.7624 195.023 62.8891 200.357 65.228C202.292 66.0766 203.61 67.0001 206 67.0001" stroke="#DE80ED" stroke-width="3" stroke-linecap="round"/>
</svg>
