<svg width="69" height="59" viewBox="0 0 69 59" fill="none" xmlns="http://www.w3.org/2000/svg">
<path d="M1.29304 23.5397C1.84558 23.8393 3.04939 24.614 3.60312 24.9628C5.31796 26.043 7.01437 27.1243 8.70929 28.2012C11.922 30.2425 15.1714 32.2748 18.3534 34.3059C22.065 36.6749 25.9877 39.1279 29.7832 41.5091C31.5021 42.5874 33.2803 43.7237 34.9901 44.7886C37.4565 46.3248 39.9744 47.8919 42.4708 49.4303C46.5587 51.9493 50.5923 54.4887 54.6846 57" stroke="white" stroke-width="3"/>
<path d="M14.3077 2.01342C14.8602 2.31306 16.064 3.08776 16.6178 3.43655C18.3326 4.51671 20.029 5.59803 21.7239 6.67496C24.9366 8.71624 28.186 10.7486 31.3681 12.7796C35.0797 15.1487 39.0023 17.6017 42.7979 19.9828C44.5167 21.0612 46.295 22.1974 48.0047 23.2623C50.4712 24.7985 52.9891 26.3657 55.4854 27.904C59.5734 30.4231 63.6069 32.9624 67.6993 35.4737" stroke="white" stroke-width="3"/>
</svg>
